<svg aria-hidden="true" style="position: absolute; width: 0; height: 0; overflow: hidden;" version="1.1" xmlns="http://www.w3.org/2000/svg" xmlns:xlink="http://www.w3.org/1999/xlink">
<defs>
<symbol id="booksy" viewBox="0 0 32 32">
<path d="M29.806 13.831c0.098 0 0.191 0 0.29 0 0.26 0 0.28 0.034 0.186 0.265-0.157 0.383-0.309 0.761-0.466 1.144-0.353 0.854-0.702 1.713-1.055 2.567-0.083 0.196-0.172 0.388-0.294 0.564-0.25 0.358-0.579 0.55-1.031 0.545-0.255-0.005-0.501-0.044-0.736-0.137-0.152-0.059-0.216-0.098-0.123-0.275 0.039-0.074 0.059-0.147 0.093-0.221 0.088-0.196 0.098-0.196 0.299-0.128 0.088 0.034 0.182 0.064 0.275 0.079 0.294 0.044 0.515-0.059 0.672-0.319 0.103-0.167 0.133-0.314 0.039-0.51-0.501-1.065-0.986-2.135-1.482-3.2-0.029-0.069-0.064-0.133-0.088-0.201-0.039-0.103-0.010-0.157 0.098-0.167 0.093-0.010 0.191 0 0.29 0 0.437 0 0.344-0.044 0.51 0.334 0.334 0.756 0.668 1.517 1.001 2.272l0.069 0.142c0 0 0.020 0.044 0.049 0.044s0.069 0.005 0.098-0.049c0.010-0.020 0.025-0.054 0.039-0.083 0.005-0.015 0.005-0.025 0.010-0.034 0.319-0.805 0.628-1.615 0.942-2.42 0.088-0.211 0.088-0.206 0.314-0.211zM24.402 15.328c0.265 0.093 0.54 0.152 0.8 0.26 0.206 0.088 0.398 0.191 0.555 0.353 0.383 0.393 0.314 1.119-0.093 1.492-0.255 0.231-0.559 0.348-0.903 0.373-0.555 0.034-1.070-0.093-1.546-0.383-0.334-0.201-0.339-0.221-0.118-0.525 0.152-0.206 0.133-0.294 0.447-0.083 0.358 0.241 0.756 0.358 1.198 0.319 0.162-0.015 0.304-0.064 0.417-0.182 0.186-0.196 0.162-0.452-0.059-0.609-0.152-0.108-0.334-0.157-0.51-0.211-0.162-0.054-0.324-0.093-0.491-0.142-0.172-0.054-0.329-0.128-0.486-0.211-0.658-0.363-0.623-1.163-0.226-1.585 0.245-0.26 0.55-0.393 0.903-0.412 0.074-0.005 0.147 0 0.221 0 0.456-0.015 0.874 0.128 1.266 0.344 0.162 0.088 0.172 0.137 0.079 0.299-0.049 0.088-0.108 0.177-0.162 0.265-0.049 0.083-0.123 0.098-0.211 0.059-0.049-0.020-0.093-0.049-0.137-0.074-0.255-0.142-0.53-0.226-0.82-0.25-0.167-0.015-0.339 0.020-0.491 0.113-0.255 0.157-0.26 0.442-0.020 0.614 0.123 0.083 0.255 0.133 0.388 0.177zM20.918 15.431c-0.103 0.108-0.103 0.118-0.010 0.241 0.456 0.599 0.913 1.193 1.369 1.791 0.049 0.069 0.147 0.128 0.098 0.226-0.044 0.098-0.152 0.074-0.236 0.074-0.118 0-0.236-0.005-0.353 0-0.133 0.010-0.221-0.039-0.299-0.142-0.314-0.417-0.638-0.829-0.957-1.242-0.26-0.334-0.221-0.314-0.422-0.128-0.137 0.133-0.304 0.309-0.368 0.398-0.025 0.049-0.049 0.093-0.064 0.147-0.034 0.137-0.025 0.285-0.025 0.285v0.186c0.005 0.079 0.005 0.157 0 0.236 0 0.025 0 0.049-0.005 0.074-0.005 0.142-0.049 0.182-0.186 0.191-0.133 0.005-0.265 0.005-0.398 0-0.147-0.005-0.172-0.034-0.177-0.191-0.005-0.373 0-0.751 0-1.124 0-0.476 0-0.957 0-1.433 0-0.8 0-1.6 0-2.4 0-0.059 0-0.118 0-0.177 0-0.093 0.049-0.137 0.133-0.142 0.157-0.005 0.309-0.010 0.466 0 0.108 0.005 0.152 0.054 0.162 0.167 0.005 0.049 0 0.103 0 0.152 0 0.947 0 1.894 0 2.842v0.182c0.010 0.015 0.025 0.025 0.044 0.034 0.069 0.025 0.118-0.074 0.167-0.128 0.51-0.53 1.026-1.060 1.531-1.595 0.083-0.088 0.167-0.133 0.29-0.123 0.162 0.010 0.324 0.005 0.491 0 0.069 0 0.137 0.005 0.167 0.079s-0.034 0.108-0.074 0.147c-0.285 0.29-0.569 0.579-0.854 0.864-0.162 0.172-0.324 0.339-0.491 0.51zM14.042 15.794c0-1.090 0.815-2.037 2.056-2.037 1.296 0 2.086 1.045 2.042 2.047 0.029 0.962-0.697 2.032-2.052 2.037-1.247 0-2.047-0.942-2.047-2.047zM17.374 15.813c0.034-0.648-0.506-1.433-1.379-1.364-0.442 0.034-0.771 0.241-0.991 0.609-0.196 0.334-0.25 0.702-0.152 1.085 0.221 0.869 1.129 1.232 1.84 0.849 0.471-0.25 0.663-0.668 0.682-1.178zM9.276 15.794c0-1.021 0.771-2.042 2.056-2.042 1.276 0 2.066 0.996 2.047 2.042 0.005 1.070-0.79 2.052-2.076 2.042-1.271-0.005-2.027-1.006-2.027-2.042zM12.275 16.726c0.407-0.466 0.456-1.163 0.128-1.683-0.245-0.388-0.599-0.599-1.134-0.594-0.26-0.015-0.54 0.098-0.785 0.314-0.535 0.476-0.589 1.374-0.103 1.939 0.54 0.623 1.433 0.555 1.894 0.025zM5.747 13.924c0.299-0.177 0.633-0.27 0.972-0.255 0.717 0.029 1.286 0.353 1.664 0.977 0.221 0.368 0.299 0.771 0.294 1.202-0.005 0.481-0.142 0.913-0.456 1.281-0.393 0.461-0.898 0.687-1.507 0.736-0.898 0.074-1.625-0.29-2.312-0.8-0.339-0.25-0.677-0.496-1.036-0.721-0.157-0.098-0.324-0.177-0.506-0.221-0.402-0.108-0.795 0.049-1.011 0.402-0.020 0.029-0.039 0.064-0.054 0.098-0.044 0.098-0.118 0.142-0.231 0.137-0.162-0.005-0.324 0-0.491 0-0.191-0.005-0.24-0.074-0.167-0.25 0.255-0.594 0.707-0.972 1.34-1.114 0.589-0.133 1.129-0.015 1.615 0.339 0.285 0.211 0.564 0.427 0.854 0.633 0.393 0.275 0.795 0.545 1.266 0.672 0.496 0.137 0.982 0.118 1.418-0.196 0.255-0.186 0.427-0.427 0.476-0.741 0.064-0.417 0.020-0.82-0.245-1.173-0.501-0.668-1.472-0.633-1.929 0.069-0.128 0.201-0.211 0.417-0.196 0.663 0.005 0.103 0.005 0.206-0.005 0.309-0.010 0.118-0.083 0.167-0.182 0.113-0.182-0.093-0.353-0.211-0.515-0.339-0.083-0.064-0.069-0.157-0.069-0.245 0-0.506 0-1.016 0-1.521s0-1.016 0-1.521c0-0.231 0.015-0.245 0.255-0.245 0.074 0 0.147 0 0.221 0 0.25 0.005 0.29 0.039 0.29 0.299 0 0.339 0 0.677 0 1.016 0 0.088 0 0.177 0 0.265 0.015 0.265 0.015 0.265 0.245 0.133z"></path>
</symbol>
<symbol id="facebook" viewBox="0 0 32 32">
<path d="M16 1.92c-7.776 0-14.080 6.304-14.080 14.080 0 7.059 5.2 12.888 11.976 13.906v-10.174h-3.484v-3.701h3.484v-2.463c0-4.077 1.987-5.868 5.375-5.868 1.623 0 2.481 0.12 2.888 0.175v3.231h-2.312c-1.439 0-1.941 1.364-1.941 2.901v2.023h4.216l-0.572 3.701h-3.644v10.204c6.872-0.932 12.174-6.808 12.174-13.936 0-7.776-6.304-14.080-14.080-14.080z"></path>
</symbol>
<symbol id="instagram" viewBox="0 0 32 32">
<path d="M10.24 1.92c-4.587 0-8.32 3.733-8.32 8.32v11.52c0 4.587 3.733 8.32 8.32 8.32h11.52c4.587 0 8.32-3.733 8.32-8.32v-11.52c0-4.587-3.733-8.32-8.32-8.32h-11.52zM10.24 3.2h11.52c3.895 0 7.040 3.145 7.040 7.040v11.52c0 3.895-3.145 7.040-7.040 7.040h-11.52c-3.895 0-7.040-3.145-7.040-7.040v-11.52c0-3.895 3.145-7.040 7.040-7.040zM23.68 7.040c-0.707 0-1.28 0.573-1.28 1.28v0c0 0.707 0.573 1.28 1.28 1.28v0c0.707 0 1.28-0.573 1.28-1.28v0c0-0.707-0.573-1.28-1.28-1.28v0zM16 8.96c-3.88 0-7.040 3.159-7.040 7.040s3.159 7.040 7.040 7.040c3.881 0 7.040-3.16 7.040-7.040s-3.16-7.040-7.040-7.040zM16 10.24c3.189 0 5.76 2.571 5.76 5.76s-2.571 5.76-5.76 5.76c-3.189 0-5.76-2.571-5.76-5.76s2.571-5.76 5.76-5.76z"></path>
</symbol>
<symbol id="languages" viewBox="0 0 32 32">
<path d="M13.556 21.034c0.698 1.579 1.514 2.939 2.473 4.183l-0.035-0.047c0.927-1.198 1.745-2.558 2.395-4.010l0.051-0.127c-1.623-0.075-3.262-0.075-4.885 0z"></path>
<path d="M7.803 21.602c1.355 1.904 3.313 3.301 5.592 3.919l0.071 0.016c-0.874-1.251-1.644-2.681-2.24-4.198l-0.049-0.141c-1.13 0.097-2.259 0.232-3.374 0.404z"></path>
<path d="M6.659 12.177c-0.44 1.083-0.696 2.339-0.696 3.654s0.255 2.572 0.72 3.721l-0.024-0.067c1.294-0.217 2.596-0.389 3.86-0.516-0.218-0.944-0.342-2.028-0.342-3.142s0.125-2.198 0.361-3.24l-0.019 0.098c-1.272-0.12-2.566-0.292-3.86-0.509z"></path>
<path d="M12.808 18.797q1.593-0.090 3.187-0.090c1.070 0 2.132 0.030 3.194 0.090 0.228-0.892 0.359-1.916 0.359-2.97s-0.131-2.078-0.377-3.056l0.018 0.086c-0.954 0.061-2.068 0.095-3.19 0.095s-2.237-0.035-3.342-0.103l0.152 0.007c-0.228 0.892-0.359 1.915-0.359 2.97s0.131 2.078 0.377 3.056l-0.018-0.086z"></path>
<path d="M25.338 19.485c0.436-1.083 0.688-2.339 0.688-3.654s-0.253-2.571-0.712-3.722l0.024 0.068c-1.294 0.217-2.596 0.389-3.86 0.509 0.218 0.944 0.342 2.028 0.342 3.142s-0.125 2.198-0.361 3.24l0.019-0.098c1.264 0.127 2.566 0.299 3.86 0.516z"></path>
<path d="M18.523 6.125c0.88 1.251 1.652 2.681 2.248 4.2l0.048 0.139c1.13-0.097 2.259-0.239 3.374-0.404-1.357-1.904-3.318-3.301-5.6-3.919l-0.071-0.016z"></path>
<path d="M18.441 10.628c-0.699-1.579-1.517-2.939-2.48-4.182l0.034 0.045c-0.927 1.197-1.742 2.558-2.389 4.011l-0.050 0.126c1.623 0.075 3.262 0.075 4.885 0z"></path>
<path d="M3.272 10.553c0.133 0.085 0.294 0.135 0.468 0.135 0.21 0 0.402-0.073 0.553-0.196l-0.002 0.001c0.292-0.246 0.422-0.705 0.55-1.049l0.464-1.247h3.953l0.464 1.22c0.171 0.449 0.38 1.116 0.909 1.242 0.066 0.016 0.142 0.025 0.22 0.025 0.513 0 0.934-0.396 0.973-0.899l0-0.003c-0.042-0.386-0.148-0.738-0.307-1.060l0.008 0.018-2.54-6.275c-0.156-0.482-0.348-0.899-0.582-1.288l0.015 0.028c-0.363-0.527-1.062-0.55-1.66-0.334-0.72 0.26-0.932 1.133-1.183 1.77-0.002 0.004-2.487 6.151-2.487 6.151-0.238 0.591-0.495 1.352 0.182 1.759zM7.263 2.868l1.466 3.85h-2.905z"></path>
<path d="M28.060 24.487c0.417 0 0.755-0.338 0.755-0.755s-0.338-0.755-0.755-0.755h-5.046l0.086-0.955c0.002-0.020 0.003-0.043 0.003-0.067 0-0.417-0.338-0.755-0.755-0.755-0.393 0-0.716 0.3-0.752 0.684l-0 0.003-0.098 1.090h-1.723c-0.417 0-0.755 0.338-0.755 0.755s0.338 0.755 0.755 0.755h1.587l-0.238 2.655c-0.002 0.020-0.003 0.044-0.003 0.068 0 0.182 0.064 0.349 0.172 0.479l-0.001-0.001c0.371 0.423 0.774 0.8 1.211 1.135l0.020 0.015c-0.896 0.569-1.968 0.942-3.12 1.034l-0.024 0.002c-0.387 0.036-0.688 0.359-0.688 0.752 0 0.417 0.338 0.755 0.755 0.755h0c0.023 0 0.045-0.001 0.068-0.003 1.66-0.123 3.16-0.721 4.39-1.656l-0.020 0.015c1.061 0.591 2.433 1.284 4.107 1.442q0.037 0.003 0.072 0.003c0.417-0 0.755-0.338 0.755-0.755 0-0.392-0.299-0.714-0.681-0.752l-0.003-0c-1.207-0.114-2.228-0.626-3.067-1.036 0.983-1.153 1.72-2.547 2.113-4.079l0.015-0.071zM23.735 27.848c-0.4-0.285-0.752-0.582-1.078-0.905l0.001 0.001 0.221-2.456h2.754c-0.381 1.31-1.036 2.438-1.902 3.366l0.004-0.005z"></path>
<path d="M16 1.337c-0.003 0-0.006 0-0.009 0-1.736 0-3.4 0.307-4.941 0.869l0.1-0.032 0.699 1.721c1.239-0.446 2.669-0.704 4.159-0.704 6.976 0 12.63 5.655 12.63 12.63 0 1.822-0.386 3.554-1.080 5.119l0.032-0.081h0.471c0.509 0 0.987 0.134 1.402 0.367l-0.014-0.007c0.66-1.591 1.043-3.438 1.043-5.375 0-0.005 0-0.011 0-0.016v0.001c0-7.554-6.502-14.492-14.492-14.492z"></path>
<path d="M3.362 15.992c0-0.005 0-0.011 0-0.017 0-1.069 0.135-2.107 0.389-3.098l-0.019 0.086c-0.001 0-0.003 0-0.004 0-0.664 0-1.278-0.219-1.772-0.588l0.008 0.006c-0.289 1.082-0.455 2.324-0.455 3.605 0 8.005 6.487 14.494 14.491 14.498h0c0.196 0 0.397-0.005 0.593-0.016 0.064-0.585 0.297-1.106 0.649-1.524l-0.003 0.004c0.136-0.163 0.287-0.306 0.454-0.429l0.007-0.005c-0.501 0.074-1.080 0.116-1.669 0.116-0.011 0-0.022 0-0.033-0h0.002c-6.977-0.007-12.631-5.661-12.638-12.638v-0.001z"></path>
</symbol>
<symbol id="phone" viewBox="0 0 32 32">
    <path fill="none" stroke="currentColor" stroke-linejoin="round" stroke-linecap="round" stroke-miterlimit="4" stroke-width="2.6667" d="M20.067 6.667c2.666 0.534 4.733 2.6 5.26 5.224l0.007 0.043M20.067 1.333c5.575 0.637 9.956 5.014 10.595 10.531l0.005 0.056M29.333 22.56v4c0 0.003 0 0.007 0 0.011 0 1.473-1.194 2.667-2.667 2.667-0.084 0-0.168-0.004-0.251-0.012l0.011 0.001c-4.327-0.482-8.236-1.943-11.607-4.155l0.1 0.062c-3.242-2.081-5.919-4.758-7.938-7.897l-0.062-0.103c-2.158-3.286-3.62-7.214-4.083-11.442l-0.010-0.118c-0.007-0.072-0.011-0.155-0.011-0.24 0-1.472 1.192-2.665 2.664-2.667h4c0.008-0 0.017-0 0.026-0 1.341 0 2.451 0.99 2.639 2.279l0.002 0.014c0.188 1.4 0.515 2.665 0.973 3.864l-0.039-0.117c0.108 0.279 0.171 0.601 0.171 0.938 0 0.731-0.294 1.394-0.771 1.875l-1.693 1.693c1.932 3.356 4.644 6.068 7.897 7.945l0.103 0.055 1.693-1.693c0.482-0.476 1.144-0.771 1.875-0.771 0.337 0 0.66 0.063 0.957 0.177l-0.018-0.006c1.082 0.418 2.347 0.745 3.658 0.924l0.089 0.010c1.304 0.189 2.294 1.299 2.294 2.641 0 0.023-0 0.046-0.001 0.070l0-0.003z"></path>
</symbol>
<symbol id="price" viewBox="0 0 32 32">
<path d="M16 0.64c-8.469 0-15.36 6.891-15.36 15.36s6.891 15.36 15.36 15.36 15.36-6.891 15.36-15.36-6.891-15.36-15.36-15.36zM16 30.080c-7.764 0-14.080-6.316-14.080-14.080s6.316-14.080 14.080-14.080 14.080 6.316 14.080 14.080-6.316 14.080-14.080 14.080z"></path>
<path d="M14.72 8.32h2.56c1.764 0 3.2 1.436 3.2 3.2h1.28c0-2.47-2.010-4.48-4.48-4.48h-0.64v-1.92h-1.28v1.92h-0.64c-2.47 0-4.48 2.010-4.48 4.48v0.64c0 2.47 2.010 4.48 4.48 4.48h2.56c1.764 0 3.2 1.436 3.2 3.2v0.64c0 1.764-1.436 3.2-3.2 3.2h-2.56c-1.764 0-3.2-1.436-3.2-3.2h-1.28c0 2.47 2.010 4.48 4.48 4.48h0.64v1.92h1.28v-1.92h0.64c2.47 0 4.48-2.010 4.48-4.48v-0.64c0-2.47-2.010-4.48-4.48-4.48h-2.56c-1.764 0-3.2-1.436-3.2-3.2v-0.64c0-1.764 1.436-3.2 3.2-3.2z"></path>
</symbol>
</defs>
</svg>
